<svg width="62" height="62" viewBox="0 0 62 62" fill="none" xmlns="http://www.w3.org/2000/svg">
<path d="M27.417 49.5V56.25C27.417 57.1185 26.7016 57.833 25.833 57.833C24.9646 57.8328 24.25 57.1184 24.25 56.25V49.5H27.417Z" stroke="white" stroke-width="2"/>
<path d="M37.7503 49.5V56.25C37.7503 57.1185 37.0349 57.833 36.1663 57.833C35.2979 57.8328 34.5833 57.1184 34.5833 56.25V49.5H37.7503Z" stroke="white" stroke-width="2"/>
<path d="M23.2503 24.25H38.7503C41.0395 24.2502 42.9163 26.1277 42.9163 28.417V41.333C42.9163 43.6223 41.0395 45.4998 38.7503 45.5H23.2503C20.9609 45.5 19.0833 43.6224 19.0833 41.333V28.417C19.0833 26.1992 20.845 24.3682 23.0364 24.2559L23.2503 24.25Z" stroke="white" stroke-width="2"/>
<path d="M10.333 26.8334C11.2014 26.8334 11.9168 27.548 11.917 28.4164V38.7504C11.9168 39.6188 11.2014 40.3334 10.333 40.3334C9.46471 40.3332 8.75018 39.6187 8.75 38.7504V28.4164C8.75018 27.5481 9.46472 26.8336 10.333 26.8334Z" stroke="white" stroke-width="2"/>
<path d="M51.6663 26.8334C52.5348 26.8334 53.2501 27.548 53.2503 28.4164V38.7504C53.2501 39.6188 52.5348 40.3334 51.6663 40.3334C50.798 40.3332 50.0835 39.6187 50.0833 38.7504V28.4164C50.0835 27.5481 50.798 26.8336 51.6663 26.8334Z" stroke="white" stroke-width="2"/>
<path d="M30.9997 6.16663C36.1565 6.16663 40.3335 10.3429 40.3337 15.4996C40.3337 17.2207 38.9209 18.6334 37.1999 18.6334H24.7995C23.0787 18.6332 21.6667 17.2206 21.6667 15.4996C21.6669 10.343 25.8431 6.1668 30.9997 6.16663Z" stroke="white" stroke-width="2"/>
</svg>
