<svg width="55" height="55" viewBox="0 0 55 55" fill="none" xmlns="http://www.w3.org/2000/svg">
<path d="M19.3506 1.62598C24.7452 0.790054 30.248 0.790234 35.6426 1.62598V1.62695C37.4166 1.9082 38.703 3.41822 38.7031 5.1748V9.79395C38.7029 10.0111 38.5463 10.1678 38.3291 10.168H36.9541C35.6322 10.1681 34.5801 11.221 34.5801 12.543V21.3945C34.5801 21.9418 34.1478 22.3739 33.6006 22.374H21.3945C15.2067 22.374 10.168 27.4127 10.168 33.6006V38.3291C10.1678 38.5463 10.0111 38.7029 9.79395 38.7031H5.1748C3.41822 38.703 1.90722 37.4166 1.62598 35.6426C0.790276 30.2483 0.791155 24.7459 1.62695 19.3516C1.90835 17.5777 3.41834 16.2921 5.1748 16.292H16.292V5.1748C16.2921 3.41834 17.5777 1.90835 19.3516 1.62695L19.3506 1.62598ZM22.9062 4.42285C22.0284 4.42293 21.234 4.83358 20.6738 5.39844C20.1126 5.96439 19.707 6.76441 19.707 7.64941C19.7071 8.52669 20.1178 9.3199 20.6768 9.87891C21.2357 10.4379 22.029 10.8486 22.9062 10.8486C23.7912 10.8486 24.5913 10.443 25.1572 9.88184C25.7221 9.32169 26.1337 8.5273 26.1338 7.64941C26.1338 6.80929 25.7552 5.92441 25.1523 5.34766H25.1533C24.5775 4.77182 23.7164 4.42285 22.9062 4.42285Z" stroke="white" stroke-width="2"/>
<path d="M41.0778 16.2916H49.82C51.5764 16.2917 53.0863 17.5775 53.3679 19.3512C54.2038 24.7459 54.2037 30.2485 53.3679 35.6432C53.0865 37.4172 51.5766 38.7037 49.82 38.7037H38.7038V49.8199C38.7038 51.467 37.5727 52.8974 35.9694 53.3014L35.6432 53.3678C30.2485 54.2036 24.746 54.2037 19.3513 53.3678H19.3522C17.5782 53.0865 16.2917 51.5766 16.2917 49.8199V33.6002C16.2918 30.7714 18.5654 28.4979 21.3942 28.4977H33.6003C37.5368 28.4977 40.7038 25.2974 40.7038 21.3942V16.6666C40.7038 16.4492 40.8604 16.2917 41.0778 16.2916ZM32.0886 44.1188C31.203 44.1188 30.4018 44.5253 29.8347 45.0924C29.2677 45.6594 28.8621 46.4601 28.862 47.3453C28.862 48.2386 29.2813 49.0399 29.8483 49.6022C30.4142 50.1633 31.2131 50.5729 32.0886 50.5729C32.9675 50.5729 33.7611 50.1599 34.3239 49.5924C34.8885 49.0231 35.2946 48.2251 35.3151 47.3414V47.318C35.3151 46.5006 34.932 45.5731 34.3102 44.9928L34.3083 44.9908C33.7382 44.4616 32.8629 44.1188 32.0886 44.1188Z" stroke="white" stroke-width="2"/>
</svg>
