<svg width="52" height="52" viewBox="0 0 52 52" fill="none" xmlns="http://www.w3.org/2000/svg">
<path d="M19.5 28.1666C18.07 28.8816 16.8783 29.9433 15.99 31.265C15.4917 32.0233 15.4917 32.9766 15.99 33.735C16.8783 35.0566 18.07 36.1183 19.5 36.8333" stroke="white" stroke-width="3" stroke-linecap="round" stroke-linejoin="round"/>
<path d="M32.955 28.1666C34.385 28.8816 35.5767 29.9433 36.465 31.265C36.9633 32.0233 36.9633 32.9766 36.465 33.735C35.5767 35.0566 34.385 36.1183 32.955 36.8333" stroke="white" stroke-width="3" stroke-linecap="round" stroke-linejoin="round"/>
<path d="M4.33334 28.1667V32.5C4.33334 43.3334 8.66668 47.6667 19.5 47.6667H32.5C43.3333 47.6667 47.6667 43.3334 47.6667 32.5V19.5C47.6667 8.66671 43.3333 4.33337 32.5 4.33337H19.5C8.66668 4.33337 4.33334 8.66671 4.33334 19.5" stroke="white" stroke-width="3" stroke-linecap="round" stroke-linejoin="round"/>
<path d="M4.83167 17.355L46.475 17.3334" stroke="white" stroke-width="3" stroke-linecap="round" stroke-linejoin="round"/>
</svg>
